<?xml version="1.0" encoding="utf-8"?>
<!-- Generator: Adobe Illustrator 16.0.0, SVG Export Plug-In . SVG Version: 6.00 Build 0)  -->
<!DOCTYPE svg PUBLIC "-//W3C//DTD SVG 1.1//EN" "http://www.w3.org/Graphics/SVG/1.1/DTD/svg11.dtd">
<svg version="1.1" id="Layer_1" xmlns="http://www.w3.org/2000/svg" xmlns:xlink="http://www.w3.org/1999/xlink" x="0px" y="0px"
	 width="106.667px" height="60px" viewBox="0 0 106.667 60" enable-background="new 0 0 106.667 60" xml:space="preserve">
<g>
	<path stroke="#FFFFFF" stroke-width="2" stroke-miterlimit="10" d="M34.5,33.635"/>
	<polyline stroke="#FFFFFF" stroke-width="2" stroke-miterlimit="10" points="30.639,28.355 26.178,44.688 38.991,30.953 	"/>
	<polyline stroke="#FFFFFF" stroke-width="2" stroke-miterlimit="10" points="61.291,29.794 80.488,44.02 71.761,29.794 	"/>
	<polyline stroke="#FFFFFF" stroke-width="2" stroke-miterlimit="10" points="45.059,31.541 50.557,47.51 53.785,33.635 	"/>
	<path stroke="#FFFFFF" stroke-width="2" stroke-miterlimit="10" d="M72.809,32.85c0,0.867-0.703,1.57-1.571,1.57h-39.53
		c-0.868,0-1.571-0.703-1.571-1.57V8.416c0-0.868,0.703-1.571,1.571-1.571h39.53c0.868,0,1.571,0.703,1.571,1.571V32.85z"/>
</g>
<text transform="matrix(1 0 0 1 35.3335 22.9634)" fill="#FFFFFF" font-family="'Play'" font-size="22.0305">&gt;_</text>
</svg>
